<svg xmlns="http://www.w3.org/2000/svg" xmlns:xlink="http://www.w3.org/1999/xlink" width="40" zoomAndPan="magnify" viewBox="0 0 30 37.5" height="50" preserveAspectRatio="xMidYMid meet" version="1.0"><defs><g/><clipPath id="1115db78f5"><path d="M 0.199219 0 L 29.800781 0 L 29.800781 37.007812 L 0.199219 37.007812 Z M 0.199219 0 " clip-rule="nonzero"/></clipPath><clipPath id="dcca1ab8eb"><path d="M 0.199219 1.332031 L 19 1.332031 L 19 27.851562 L 0.199219 27.851562 Z M 0.199219 1.332031 " clip-rule="nonzero"/></clipPath><clipPath id="e333f2c896"><path d="M 17 1.332031 L 29.800781 1.332031 L 29.800781 4 L 17 4 Z M 17 1.332031 " clip-rule="nonzero"/></clipPath><clipPath id="b788d58908"><path d="M 11 6 L 14 6 L 14 27.851562 L 11 27.851562 Z M 11 6 " clip-rule="nonzero"/></clipPath></defs><g clip-path="url(#1115db78f5)"><path fill="#ffffff" d="M 0.199219 0 L 29.800781 0 L 29.800781 37.007812 L 0.199219 37.007812 Z M 0.199219 0 " fill-opacity="1" fill-rule="nonzero"/><path fill="#ffffff" d="M 0.199219 0 L 29.800781 0 L 29.800781 37.007812 L 0.199219 37.007812 Z M 0.199219 0 " fill-opacity="1" fill-rule="nonzero"/></g><g clip-path="url(#dcca1ab8eb)"><path fill="#ff3131" d="M 15.070312 1.335938 L 18.144531 4.40625 L 18.144531 25.542969 L 15.835938 27.847656 L 15.835938 5.5625 L 13.597656 3.320312 L 2.710938 3.320312 L -0.171875 1.335938 Z M 15.070312 1.335938 " fill-opacity="1" fill-rule="nonzero"/></g><g clip-path="url(#e333f2c896)"><path fill="#ff3131" d="M 29.800781 1.335938 L 26.917969 3.320312 L 20.257812 3.320312 L 17.375 1.335938 Z M 29.800781 1.335938 " fill-opacity="1" fill-rule="nonzero"/></g><g clip-path="url(#b788d58908)"><path fill="#ff3131" d="M 13.917969 27.847656 L 11.613281 25.542969 L 11.613281 6.523438 L 13.917969 6.523438 Z M 13.917969 27.847656 " fill-opacity="1" fill-rule="nonzero"/></g><g fill="#ff3131" fill-opacity="1"><g transform="translate(2.871678, 35.044458)"><g><path d="M 4.34375 -4.53125 L 2.65625 -4.53125 L 2.65625 0 L 1.75 0 L 1.75 -4.53125 L 0.0625 -4.53125 L 0.0625 -5.34375 L 4.34375 -5.34375 Z M 4.34375 -4.53125 "/></g></g></g><g fill="#ff3131" fill-opacity="1"><g transform="translate(8.478838, 35.044458)"><g><path d="M 4.09375 0 L 3.109375 -1.609375 C 3.054688 -1.609375 2.972656 -1.609375 2.859375 -1.609375 L 1.59375 -1.609375 L 1.59375 0 L 0.703125 0 L 0.703125 -5.34375 L 2.859375 -5.34375 C 3.546875 -5.34375 4.078125 -5.179688 4.453125 -4.859375 C 4.828125 -4.546875 5.015625 -4.097656 5.015625 -3.515625 C 5.015625 -3.085938 4.921875 -2.722656 4.734375 -2.421875 C 4.546875 -2.128906 4.269531 -1.914062 3.90625 -1.78125 L 5.109375 0 Z M 1.59375 -2.421875 L 2.859375 -2.421875 C 3.722656 -2.421875 4.15625 -2.78125 4.15625 -3.5 C 4.15625 -4.1875 3.722656 -4.53125 2.859375 -4.53125 L 1.59375 -4.53125 Z M 1.59375 -2.421875 "/></g></g></g><g fill="#ff3131" fill-opacity="1"><g transform="translate(15.183053, 35.044458)"><g><path d="M 1.078125 -4.578125 C 1.617188 -5.097656 2.285156 -5.359375 3.078125 -5.359375 C 3.878906 -5.359375 4.550781 -5.097656 5.09375 -4.578125 C 5.644531 -4.066406 5.921875 -3.429688 5.921875 -2.671875 C 5.921875 -1.910156 5.644531 -1.269531 5.09375 -0.75 C 4.550781 -0.226562 3.878906 0.03125 3.078125 0.03125 C 2.285156 0.03125 1.617188 -0.226562 1.078125 -0.75 C 0.535156 -1.269531 0.265625 -1.910156 0.265625 -2.671875 C 0.265625 -3.429688 0.535156 -4.066406 1.078125 -4.578125 Z M 3.09375 -4.546875 C 2.5625 -4.546875 2.109375 -4.363281 1.734375 -4 C 1.359375 -3.644531 1.171875 -3.203125 1.171875 -2.671875 C 1.171875 -2.140625 1.359375 -1.6875 1.734375 -1.3125 C 2.117188 -0.945312 2.570312 -0.765625 3.09375 -0.765625 C 3.613281 -0.765625 4.0625 -0.945312 4.4375 -1.3125 C 4.8125 -1.6875 5 -2.140625 5 -2.671875 C 5 -3.203125 4.8125 -3.644531 4.4375 -4 C 4.0625 -4.363281 3.613281 -4.546875 3.09375 -4.546875 Z M 3.09375 -4.546875 "/></g></g></g><g fill="#ff3131" fill-opacity="1"><g transform="translate(22.550071, 35.044458)"><g><path d="M 3.0625 -5.359375 C 3.4375 -5.359375 3.800781 -5.285156 4.15625 -5.140625 C 4.519531 -4.992188 4.832031 -4.789062 5.09375 -4.53125 L 4.5625 -3.875 C 4.375 -4.082031 4.144531 -4.25 3.875 -4.375 C 3.613281 -4.5 3.347656 -4.5625 3.078125 -4.5625 C 2.546875 -4.5625 2.09375 -4.378906 1.71875 -4.015625 C 1.351562 -3.648438 1.171875 -3.207031 1.171875 -2.6875 C 1.171875 -2.15625 1.351562 -1.707031 1.71875 -1.34375 C 2.09375 -0.976562 2.546875 -0.796875 3.078125 -0.796875 C 3.628906 -0.796875 4.125 -1.007812 4.5625 -1.4375 L 5.09375 -0.84375 C 4.820312 -0.570312 4.503906 -0.359375 4.140625 -0.203125 C 3.773438 -0.046875 3.40625 0.03125 3.03125 0.03125 C 2.25 0.03125 1.59375 -0.226562 1.0625 -0.75 C 0.53125 -1.269531 0.265625 -1.910156 0.265625 -2.671875 C 0.265625 -3.429688 0.535156 -4.066406 1.078125 -4.578125 C 1.617188 -5.097656 2.28125 -5.359375 3.0625 -5.359375 Z M 3.0625 -5.359375 "/></g></g></g></svg>