<svg xmlns="http://www.w3.org/2000/svg" width="40" height="50" version="1.0" viewBox="0 0 30 37.5"><defs><clipPath id="a"><path d="M.2 0h29.6v37.008H.2Zm0 0"/></clipPath><clipPath id="b"><path d="M.2 1.332H19v26.52H.2Zm0 0"/></clipPath><clipPath id="c"><path d="M17 1.332h12.8V4H17Zm0 0"/></clipPath><clipPath id="d"><path d="M11 6h3v21.852h-3Zm0 0"/></clipPath></defs><g fill="#fff" clip-path="url(#a)"><path d="M.2 0h29.6v37.008H.2Zm0 0"/><path d="M.2 0h29.6v37.008H.2Zm0 0"/></g><g clip-path="url(#b)"><path fill="#ff3131" d="m15.07 1.336 3.075 3.07v21.137l-2.31 2.305V5.563L13.599 3.32H2.71L-.172 1.336Zm0 0"/></g><g clip-path="url(#c)"><path fill="#ff3131" d="M29.8 1.336 26.919 3.32h-6.66l-2.883-1.984Zm0 0"/></g><g clip-path="url(#d)"><path fill="#ff3131" d="m13.918 27.848-2.305-2.305V6.523h2.305Zm0 0"/></g><path fill="#ff3131" d="M7.215 30.513H5.528v4.531h-.906v-4.53H2.934V29.7h4.281ZM12.573 35.044l-.985-1.609h-1.515v1.61h-.891V29.7h2.156c.688 0 1.219.164 1.594.484.375.313.562.762.562 1.344 0 .43-.093.793-.28 1.094a1.603 1.603 0 0 1-.829.64l1.203 1.781Zm-2.5-2.421h1.265c.863 0 1.297-.36 1.297-1.079 0-.687-.434-1.03-1.297-1.03h-1.265ZM16.261 30.466c.54-.52 1.207-.78 2-.78.801 0 1.473.26 2.016.78a2.5 2.5 0 0 1 .828 1.907 2.54 2.54 0 0 1-.828 1.921c-.543.524-1.215.782-2.016.782-.793 0-1.46-.258-2-.782-.543-.52-.812-1.16-.812-1.921 0-.758.27-1.395.812-1.907Zm2.016.032c-.531 0-.985.183-1.36.546a1.753 1.753 0 0 0-.562 1.329c0 .53.187.984.562 1.359.383.367.836.547 1.36.547.52 0 .969-.18 1.344-.547.375-.375.562-.828.562-1.36 0-.53-.187-.972-.562-1.328a1.868 1.868 0 0 0-1.344-.546ZM25.613 29.685c.375 0 .738.074 1.093.219.364.148.676.351.938.61l-.531.655a2.123 2.123 0 0 0-.688-.5 1.832 1.832 0 0 0-.797-.187c-.531 0-.984.184-1.36.547a1.804 1.804 0 0 0-.546 1.328c0 .531.18.98.547 1.344.375.367.828.547 1.36.547.55 0 1.046-.211 1.484-.641l.53.594a3.01 3.01 0 0 1-.952.64 2.802 2.802 0 0 1-1.11.235c-.78 0-1.437-.258-1.968-.782-.532-.52-.797-1.16-.797-1.921 0-.758.27-1.395.812-1.907.54-.52 1.203-.78 1.985-.78Zm0 0"/></svg>